<svg width="21" height="19" viewBox="0 0 21 19" fill="none" xmlns="http://www.w3.org/2000/svg">
<path d="M9 14C7.90379 14 7 14.9039 7 16C7 17.0961 7.90387 18 9 18C10.0961 18 11 17.0961 11 16C10.9812 14.9045 10.0961 14 9 14ZM9 16.789C8.55745 16.789 8.21108 16.4426 8.21108 16.0001C8.21108 15.5575 8.55745 15.2112 9 15.2112C9.44254 15.2112 9.78892 15.5575 9.78892 16.0001C9.78892 16.4238 9.42302 16.789 9 16.789Z" fill="white"/>
<path d="M17 14C15.9038 14 15 14.9039 15 16C15 17.0961 15.9039 18 17 18C18.0961 18 19 17.0961 19 16C18.9812 14.9045 18.0961 14 17 14ZM17 16.789C16.5575 16.789 16.2111 16.4426 16.2111 16.0001C16.2111 15.5575 16.5575 15.2112 17 15.2112C17.4425 15.2112 17.7889 15.5575 17.7889 16.0001C17.7889 16.4238 17.423 16.789 17 16.789Z" fill="white"/>
<path d="M20.5613 3.70464C20.1822 3.24136 19.5924 2.95978 18.9821 2.95978H6.15889L5.75914 1.47006C5.52718 0.604071 4.72769 0 3.80069 0H1.6531C1.2953 0 1 0.281578 1 0.624529C1 0.966675 1.29446 1.24906 1.6531 1.24906H3.80069C4.11654 1.24906 4.39045 1.45042 4.47434 1.75245L7.04306 11.5388C7.27502 12.4048 8.07451 13.0089 9.00152 13.0089H17.4028C18.3289 13.0089 19.1507 12.4048 19.3612 11.5388L20.9405 5.33681C21.0877 4.77206 20.9619 4.16792 20.5613 3.70464ZM19.6566 5.05358L18.0773 11.2556C17.9934 11.5576 17.7195 11.759 17.4036 11.759H9.00154C8.68569 11.759 8.41178 11.5576 8.32789 11.2556L6.49611 4.22862H18.983C19.1936 4.22862 19.4042 4.3293 19.5308 4.49054C19.6567 4.651 19.7191 4.85221 19.6566 5.05358Z" fill="white"/>
</svg>
