<svg width="32" height="31" viewBox="0 0 32 31" fill="none" xmlns="http://www.w3.org/2000/svg">
<path d="M28.998 23.4041C29.0251 23.7246 28.7774 24 28.4622 24H2.53767C2.22326 24 1.97593 23.7259 2.00187 23.4061L3.8597 0.503422C3.88282 0.218928 4.11577 0 4.39564 0H26.527C26.806 0 27.0387 0.217829 27.0626 0.501502L28.998 23.4041Z" fill="#1DCF65"/>
<path d="M31.1789 29.8817C31.2114 30.2788 30.9012 30.6193 30.5069 30.6193H0.674458C0.280978 30.6193 -0.0290002 30.2805 0.00215985 29.884L2.14384 2.62745C2.17176 2.27298 2.46434 2 2.81614 2H28.2759C28.6269 2 28.9192 2.27189 28.9481 2.62526L31.1789 29.8817Z" fill="url(#paint0_linear)"/>
<path d="M15.0419 22.9868C11.1589 22.9868 8 19.1546 8 14.4443C8 14.199 8.1968 14 8.43974 14C8.68268 14 8.87949 14.1988 8.87949 14.4443C8.87949 18.6647 11.644 22.0982 15.042 22.0982C18.4401 22.0982 21.2046 18.6647 21.2046 14.4443C21.2046 14.199 21.4014 14 21.6444 14C21.8873 14 22.0841 14.1988 22.0841 14.4443C22.084 19.1546 18.9249 22.9868 15.0419 22.9868Z" fill="white"/>
<path d="M19.4397 14.1909C19.3272 14.1909 19.2147 14.1476 19.1288 14.0608C18.9571 13.8873 18.9571 13.606 19.1288 13.4325L21.4077 11.1302C21.4901 11.0469 21.6019 11 21.7186 11C21.8353 11 21.9471 11.0467 22.0295 11.1302L24.2861 13.4102C24.4578 13.5837 24.4578 13.8649 24.2861 14.0384C24.1144 14.2118 23.836 14.2119 23.6643 14.0384L21.7184 12.0727L19.7506 14.0608C19.6647 14.1476 19.5522 14.1909 19.4397 14.1909Z" fill="white"/>
<defs>
<linearGradient id="paint0_linear" x1="24.9534" y1="26.614" x2="6.59333" y2="5.18107" gradientUnits="userSpaceOnUse">
<stop stop-color="#52D67A"/>
<stop offset="1" stop-color="#5AEE87"/>
</linearGradient>
</defs>
</svg>
